M48
;GenerationSoftware,Autodesk,EAGLE,9.6.2*%
;CreationDate,2023-07-03T19:47:54Z*%
FMAT,2
ICI,OFF
METRIC,TZ,000.000
T3C0.305
T2C1.016
T1C3.302
%
G90
M71
T1
X22860Y28448
X22860Y22860
X2540Y22860
X22860Y2540
X2540Y2540
X48768Y22860
X28448Y22860
X48768Y2540
X28448Y2540
X74676Y22860
X54356Y22860
X74676Y2540
X54356Y2540
X100584Y22860
X80264Y22860
X100584Y2540
X80264Y2540
X126492Y22860
X106172Y22860
X126492Y2540
X106172Y2540
X152400Y22860
X132080Y22860
X152400Y2540
X132080Y2540
X22860Y48768
X2540Y48768
X28448Y74676
X2540Y28448
X48768Y48768
X28448Y48768
X48768Y28448
X28448Y28448
X74676Y48768
X54356Y48768
X74676Y28448
X54356Y28448
X100584Y48768
X80264Y48768
X100584Y28448
X80264Y28448
X126492Y48768
X106172Y48768
X126492Y28448
X106172Y28448
X152400Y48768
X132080Y48768
X152400Y28448
X132080Y28448
X22860Y74676
X2540Y74676
X22860Y54356
X2540Y54356
X48768Y74676
X132080Y80264
X48768Y54356
X28448Y54356
X74676Y74676
X54356Y74676
X74676Y54356
X54356Y54356
X100584Y74676
X80264Y74676
X100584Y54356
X80264Y54356
X126492Y74676
X106172Y74676
X126492Y54356
X106172Y54356
X152400Y74676
X132080Y74676
X152400Y54356
X132080Y54356
X22860Y100584
X2540Y100584
X22860Y80264
X2540Y80264
X48768Y100584
X28448Y100584
X48768Y80264
X28448Y80264
X74676Y100584
X54356Y100584
X74676Y80264
X54356Y80264
X100584Y100584
X80264Y100584
X100584Y80264
X80264Y80264
X126492Y100584
X106172Y100584
X126492Y80264
X106172Y80264
X152400Y100584
X132080Y100584
X152400Y80264
T2
X147320Y78994
X7620Y1270
X10160Y1270
X12700Y1270
X15240Y1270
X17780Y1270
X33528Y1270
X36068Y1270
X38608Y1270
X41148Y1270
X43688Y1270
X59436Y1270
X61976Y1270
X64516Y1270
X67056Y1270
X69596Y1270
X85344Y1270
X87884Y1270
X90424Y1270
X92964Y1270
X95504Y1270
X111252Y1270
X113792Y1270
X116332Y1270
X118872Y1270
X121412Y1270
X137160Y1270
X139700Y1270
X142240Y1270
X144780Y1270
X147320Y1270
X7620Y27178
X10160Y27178
X12700Y27178
X15240Y27178
X17780Y27178
X33528Y27178
X36068Y27178
X38608Y27178
X41148Y27178
X43688Y27178
X59436Y27178
X61976Y27178
X64516Y27178
X67056Y27178
X69596Y27178
X85344Y27178
X87884Y27178
X90424Y27178
X92964Y27178
X95504Y27178
X111252Y27178
X113792Y27178
X116332Y27178
X118872Y27178
X121412Y27178
X137160Y27178
X139700Y27178
X142240Y27178
X144780Y27178
X147320Y27178
X7620Y53086
X10160Y53086
X12700Y53086
X15240Y53086
X17780Y53086
X33528Y53086
X36068Y53086
X38608Y53086
X41148Y53086
X43688Y53086
X59436Y53086
X61976Y53086
X64516Y53086
X67056Y53086
X69596Y53086
X85344Y53086
X87884Y53086
X90424Y53086
X92964Y53086
X95504Y53086
X111252Y53086
X113792Y53086
X116332Y53086
X118872Y53086
X121412Y53086
X137160Y53086
X139700Y53086
X142240Y53086
X144780Y53086
X147320Y53086
X7620Y78994
X10160Y78994
X12700Y78994
X15240Y78994
X17780Y78994
X33528Y78994
X36068Y78994
X38608Y78994
X41148Y78994
X43688Y78994
X59436Y78994
X61976Y78994
X64516Y78994
X67056Y78994
X69596Y78994
X85344Y78994
X87884Y78994
X90424Y78994
X92964Y78994
X95504Y78994
X111252Y78994
X113792Y78994
X116332Y78994
X118872Y78994
X121412Y78994
X137160Y78994
X139700Y78994
X142240Y78994
X144780Y78994
T3
X78788Y12979
X101765Y12791
X89649Y17353
X90178Y15598
X91973Y4054
X89449Y3368
X90554Y8092
X87854Y14752
X94567Y14580
X87930Y18336
X96324Y18387
X90427Y19045
X98450Y16129
X96030Y13988
X85781Y10508
X89863Y10988
X95626Y7463
X94544Y6393
X96530Y3310
X94483Y3378
X88478Y5390
X93261Y12443
X85239Y12234
X91280Y5273
X93231Y10353
X84326Y11893
X90434Y5392
X84473Y13647
X90691Y13205
X99357Y12207
X91971Y6208
X94559Y10467
X96728Y16693
X93096Y18217
X91582Y18219
X93416Y7569
X87353Y16543
X83581Y17399
X80310Y18606
X92405Y16063
X84590Y9980
X84079Y5057
X85301Y8433
X98044Y18339
X109822Y10485
X118212Y10439
X118224Y12428
X110703Y15845
X109471Y15009
X125311Y11140
X122659Y11163
X120482Y17074
X121534Y10498
X117168Y9614
X111811Y9388
X119225Y6187
X109268Y9408
X107506Y14166
X109581Y24158
X123167Y24158
X126766Y7059
X128143Y19619
X123447Y1768
X109078Y1392
X105039Y8219
X104696Y12979
X127673Y12791
X115557Y17353
X116086Y15598
X117881Y4054
X115357Y3368
X116462Y8092
X113762Y14752
X120475Y14580
X113838Y18336
X122232Y18387
X116335Y19045
X124358Y16129
X121938Y13988
X111689Y10508
X115771Y10988
X121534Y7463
X120452Y6393
X122438Y3310
X120391Y3378
X114386Y5390
X119169Y12443
X111147Y12234
X117188Y5273
X119139Y10353
X110234Y11893
X116342Y5392
X110381Y13647
X116599Y13205
X125265Y12207
X117879Y6208
X120467Y10467
X122636Y16693
X119004Y18217
X117490Y18219
X119324Y7569
X113261Y16543
X109489Y17399
X106218Y18606
X118313Y16063
X110498Y9980
X109987Y5057
X111209Y8433
X123952Y18339
X135730Y10485
X144120Y10439
X144132Y12428
X136611Y15845
X135379Y15009
X151219Y11140
X148567Y11163
X146390Y17074
X147442Y10498
X143076Y9614
X137719Y9388
X145133Y6187
X135176Y9408
X133414Y14166
X135489Y24158
X149075Y24158
X152674Y7059
X154051Y19619
X149355Y1768
X134986Y1392
X130947Y8219
X130604Y12979
X153581Y12791
X141465Y17353
X141994Y15598
X143789Y4054
X141265Y3368
X142370Y8092
X139670Y14752
X146383Y14580
X139746Y18336
X148140Y18387
X142243Y19045
X150266Y16129
X147846Y13988
X137597Y10508
X141679Y10988
X147442Y7463
X146360Y6393
X148346Y3310
X146299Y3378
X140294Y5390
X145077Y12443
X137055Y12234
X143096Y5273
X145047Y10353
X136142Y11893
X142250Y5392
X136289Y13647
X142507Y13205
X151173Y12207
X143787Y6208
X146375Y10467
X148544Y16693
X144912Y18217
X143398Y18219
X145232Y7569
X139169Y16543
X135397Y17399
X132126Y18606
X144221Y16063
X136406Y9980
X135895Y5057
X137117Y8433
X149860Y18339
X6190Y36393
X14580Y36347
X14592Y38336
X7071Y41753
X5839Y40917
X21679Y37048
X19027Y37071
X16850Y42982
X17902Y36406
X13536Y35522
X8179Y35296
X15593Y32095
X5636Y35316
X3874Y40074
X5949Y50066
X19535Y50066
X23134Y32967
X24511Y45527
X19815Y27676
X5446Y27300
X1407Y34127
X1064Y38887
X24041Y38699
X11925Y43261
X12454Y41506
X14249Y29962
X11725Y29276
X12830Y34000
X10130Y40660
X16843Y40488
X10206Y44244
X18600Y44295
X12703Y44953
X20726Y42037
X18306Y39896
X8057Y36416
X12139Y36896
X17902Y33371
X16820Y32301
X18806Y29218
X16759Y29286
X10754Y31298
X15537Y38351
X7515Y38142
X13556Y31181
X15507Y36261
X6602Y37801
X12710Y31300
X6749Y39555
X12967Y39113
X21633Y38115
X14247Y32116
X16835Y36375
X19004Y42601
X15372Y44125
X13858Y44127
X15692Y33477
X9629Y42451
X5857Y43307
X2586Y44513
X14681Y41971
X6866Y35888
X6355Y30965
X7577Y34341
X20320Y44247
X32098Y36393
X40488Y36347
X40500Y38336
X32979Y41753
X31747Y40917
X47587Y37048
X44935Y37071
X42758Y42982
X43810Y36406
X39444Y35522
X34087Y35296
X41501Y32095
X31544Y35316
X29782Y40074
X31857Y50066
X45443Y50066
X49042Y32967
X50419Y45527
X45723Y27676
X31354Y27300
X27315Y34127
X26972Y38887
X49949Y38699
X37833Y43261
X38362Y41506
X40157Y29962
X37633Y29276
X38738Y34000
X36038Y40660
X42751Y40488
X36114Y44244
X44508Y44295
X38611Y44953
X46634Y42037
X44214Y39896
X33965Y36416
X38047Y36896
X43810Y33371
X42728Y32301
X44714Y29218
X42667Y29286
X36662Y31298
X41445Y38351
X33423Y38142
X39464Y31181
X41415Y36261
X32510Y37801
X38618Y31300
X32657Y39555
X38875Y39113
X47541Y38115
X40155Y32116
X42743Y36375
X44912Y42601
X41280Y44125
X39766Y44127
X41600Y33477
X35537Y42451
X31765Y43307
X28494Y44513
X40589Y41971
X32774Y35888
X32263Y30965
X33485Y34341
X46228Y44247
X58006Y36393
X66396Y36347
X66408Y38336
X58887Y41753
X57655Y40917
X73495Y37048
X70843Y37071
X68666Y42982
X69718Y36406
X65352Y35522
X59995Y35296
X67409Y32095
X57452Y35316
X55690Y40074
X57765Y50066
X71351Y50066
X74950Y32967
X76327Y45527
X71631Y27676
X57262Y27300
X53223Y34127
X52880Y38887
X75857Y38699
X63741Y43261
X64270Y41506
X66065Y29962
X63541Y29276
X64646Y34000
X61946Y40660
X68659Y40488
X62022Y44244
X70416Y44295
X64519Y44953
X72542Y42037
X70122Y39896
X59873Y36416
X63955Y36896
X69718Y33371
X68636Y32301
X70622Y29218
X68575Y29286
X62570Y31298
X67353Y38351
X59331Y38142
X65372Y31181
X67323Y36261
X58418Y37801
X64526Y31300
X58565Y39555
X64783Y39113
X73449Y38115
X66063Y32116
X68651Y36375
X70820Y42601
X67188Y44125
X65674Y44127
X67508Y33477
X61445Y42451
X57673Y43307
X54402Y44513
X66497Y41971
X58682Y35888
X58171Y30965
X59393Y34341
X72136Y44247
X83914Y36393
X92304Y36347
X92316Y38336
X84795Y41753
X83563Y40917
X99403Y37048
X96751Y37071
X94574Y42982
X95626Y36406
X91260Y35522
X85903Y35296
X93317Y32095
X83360Y35316
X81598Y40074
X83673Y50066
X97259Y50066
X100858Y32967
X102235Y45527
X97539Y27676
X83170Y27300
X79131Y34127
X78788Y38887
X101765Y38699
X89649Y43261
X90178Y41506
X91973Y29962
X89449Y29276
X90554Y34000
X87854Y40660
X94567Y40488
X87930Y44244
X96324Y44295
X90427Y44953
X98450Y42037
X96030Y39896
X85781Y36416
X89863Y36896
X95626Y33371
X94544Y32301
X96530Y29218
X94483Y29286
X88478Y31298
X93261Y38351
X85239Y38142
X91280Y31181
X93231Y36261
X84326Y37801
X90434Y31300
X84473Y39555
X90691Y39113
X99357Y38115
X91971Y32116
X94559Y36375
X96728Y42601
X93096Y44125
X91582Y44127
X93416Y33477
X87353Y42451
X83581Y43307
X80310Y44513
X92405Y41971
X84590Y35888
X84079Y30965
X85301Y34341
X98044Y44247
X109822Y36393
X118212Y36347
X118224Y38336
X110703Y41753
X109471Y40917
X125311Y37048
X122659Y37071
X120482Y42982
X121534Y36406
X117168Y35522
X111811Y35296
X119225Y32095
X109268Y35316
X107506Y40074
X109581Y50066
X123167Y50066
X126766Y32967
X128143Y45527
X123447Y27676
X109078Y27300
X105039Y34127
X104696Y38887
X127673Y38699
X115557Y43261
X116086Y41506
X117881Y29962
X115357Y29276
X116462Y34000
X113762Y40660
X120475Y40488
X113838Y44244
X122232Y44295
X116335Y44953
X124358Y42037
X121938Y39896
X111689Y36416
X115771Y36896
X121534Y33371
X120452Y32301
X122438Y29218
X120391Y29286
X114386Y31298
X119169Y38351
X111147Y38142
X117188Y31181
X119139Y36261
X110234Y37801
X116342Y31300
X110381Y39555
X116599Y39113
X125265Y38115
X117879Y32116
X120467Y36375
X122636Y42601
X119004Y44125
X117490Y44127
X119324Y33477
X113261Y42451
X109489Y43307
X106218Y44513
X118313Y41971
X110498Y35888
X109987Y30965
X111209Y34341
X123952Y44247
X135730Y36393
X144120Y36347
X144132Y38336
X136611Y41753
X135379Y40917
X151219Y37048
X148567Y37071
X146390Y42982
X147442Y36406
X143076Y35522
X137719Y35296
X145133Y32095
X135176Y35316
X133414Y40074
X135489Y50066
X149075Y50066
X152674Y32967
X154051Y45527
X149355Y27676
X134986Y27300
X130947Y34127
X130604Y38887
X153581Y38699
X141465Y43261
X141994Y41506
X143789Y29962
X141265Y29276
X142370Y34000
X139670Y40660
X146383Y40488
X139746Y44244
X148140Y44295
X142243Y44953
X150266Y42037
X147846Y39896
X137597Y36416
X141679Y36896
X147442Y33371
X146360Y32301
X148346Y29218
X146299Y29286
X140294Y31298
X145077Y38351
X137055Y38142
X143096Y31181
X145047Y36261
X136142Y37801
X142250Y31300
X136289Y39555
X142507Y39113
X151173Y38115
X143787Y32116
X146375Y36375
X148544Y42601
X144912Y44125
X143398Y44127
X145232Y33477
X139169Y42451
X135397Y43307
X132126Y44513
X144221Y41971
X136406Y35888
X135895Y30965
X137117Y34341
X149860Y44247
X6190Y62301
X14580Y62255
X14592Y64244
X7071Y67661
X5839Y66825
X21679Y62956
X19027Y62979
X16850Y68890
X17902Y62314
X13536Y61430
X8179Y61204
X15593Y58003
X5636Y61224
X3874Y65982
X5949Y75974
X19535Y75974
X23134Y58875
X24511Y71435
X19815Y53584
X5446Y53208
X1407Y60035
X1064Y64795
X24041Y64607
X11925Y69169
X12454Y67414
X14249Y55870
X11725Y55184
X12830Y59908
X10130Y66568
X16843Y66396
X10206Y70152
X18600Y70203
X12703Y70861
X20726Y67945
X18306Y65804
X8057Y62324
X12139Y62804
X17902Y59279
X16820Y58209
X18806Y55126
X16759Y55194
X10754Y57206
X15537Y64259
X7515Y64050
X13556Y57089
X15507Y62169
X6602Y63709
X12710Y57208
X6749Y65463
X12967Y65021
X21633Y64023
X14247Y58024
X16835Y62283
X19004Y68509
X15372Y70033
X13858Y70035
X15692Y59385
X9629Y68359
X5857Y69215
X2586Y70422
X14681Y67879
X6866Y61796
X6355Y56873
X7577Y60249
X20320Y70155
X32098Y62301
X40488Y62255
X40500Y64244
X32979Y67661
X31747Y66825
X47587Y62956
X44935Y62979
X42758Y68890
X43810Y62314
X39444Y61430
X34087Y61204
X41501Y58003
X31544Y61224
X29782Y65982
X31857Y75974
X45443Y75974
X49042Y58875
X50419Y71435
X45723Y53584
X31354Y53208
X27315Y60035
X26972Y64795
X49949Y64607
X37833Y69169
X38362Y67414
X40157Y55870
X37633Y55184
X38738Y59908
X36038Y66568
X42751Y66396
X36114Y70152
X44508Y70203
X38611Y70861
X46634Y67945
X44214Y65804
X33965Y62324
X38047Y62804
X43810Y59279
X42728Y58209
X44714Y55126
X42667Y55194
X36662Y57206
X41445Y64259
X33423Y64050
X39464Y57089
X41415Y62169
X32510Y63709
X38618Y57208
X32657Y65463
X38875Y65021
X47541Y64023
X40155Y58024
X42743Y62283
X44912Y68509
X41280Y70033
X39766Y70035
X41600Y59385
X35537Y68359
X31765Y69215
X28494Y70422
X40589Y67879
X32774Y61796
X32263Y56873
X33485Y60249
X46228Y70155
X58006Y62301
X66396Y62255
X66408Y64244
X58887Y67661
X57655Y66825
X73495Y62956
X70843Y62979
X68666Y68890
X69718Y62314
X65352Y61430
X59995Y61204
X67409Y58003
X57452Y61224
X55690Y65982
X57765Y75974
X71351Y75974
X74950Y58875
X76327Y71435
X71631Y53584
X57262Y53208
X53223Y60035
X52880Y64795
X75857Y64607
X63741Y69169
X64270Y67414
X66065Y55870
X63541Y55184
X64646Y59908
X61946Y66568
X68659Y66396
X62022Y70152
X70416Y70203
X64519Y70861
X72542Y67945
X70122Y65804
X59873Y62324
X63955Y62804
X69718Y59279
X68636Y58209
X70622Y55126
X68575Y55194
X62570Y57206
X67353Y64259
X59331Y64050
X65372Y57089
X67323Y62169
X58418Y63709
X64526Y57208
X58565Y65463
X64783Y65021
X73449Y64023
X66063Y58024
X68651Y62283
X70820Y68509
X67188Y70033
X65674Y70035
X67508Y59385
X61445Y68359
X57673Y69215
X54402Y70422
X66497Y67879
X58682Y61796
X58171Y56873
X59393Y60249
X72136Y70155
X83914Y62301
X92304Y62255
X92316Y64244
X84795Y67661
X83563Y66825
X99403Y62956
X96751Y62979
X94574Y68890
X95626Y62314
X91260Y61430
X85903Y61204
X93317Y58003
X83360Y61224
X81598Y65982
X83673Y75974
X97259Y75974
X100858Y58875
X102235Y71435
X97539Y53584
X83170Y53208
X79131Y60035
X78788Y64795
X101765Y64607
X89649Y69169
X90178Y67414
X91973Y55870
X89449Y55184
X90554Y59908
X87854Y66568
X94567Y66396
X87930Y70152
X96324Y70203
X90427Y70861
X98450Y67945
X96030Y65804
X85781Y62324
X89863Y62804
X95626Y59279
X94544Y58209
X96530Y55126
X94483Y55194
X88478Y57206
X93261Y64259
X85239Y64050
X91280Y57089
X93231Y62169
X84326Y63709
X90434Y57208
X84473Y65463
X90691Y65021
X99357Y64023
X91971Y58024
X94559Y62283
X96728Y68509
X93096Y70033
X91582Y70035
X93416Y59385
X87353Y68359
X83581Y69215
X80310Y70422
X92405Y67879
X84590Y61796
X84079Y56873
X85301Y60249
X98044Y70155
X109822Y62301
X118212Y62255
X118224Y64244
X110703Y67661
X109471Y66825
X125311Y62956
X122659Y62979
X120482Y68890
X121534Y62314
X117168Y61430
X111811Y61204
X119225Y58003
X109268Y61224
X107506Y65982
X109581Y75974
X123167Y75974
X126766Y58875
X128143Y71435
X123447Y53584
X109078Y53208
X105039Y60035
X104696Y64795
X127673Y64607
X115557Y69169
X116086Y67414
X117881Y55870
X115357Y55184
X116462Y59908
X113762Y66568
X120475Y66396
X113838Y70152
X122232Y70203
X116335Y70861
X124358Y67945
X121938Y65804
X111689Y62324
X115771Y62804
X121534Y59279
X120452Y58209
X122438Y55126
X120391Y55194
X114386Y57206
X119169Y64259
X111147Y64050
X117188Y57089
X119139Y62169
X110234Y63709
X116342Y57208
X110381Y65463
X116599Y65021
X125265Y64023
X117879Y58024
X120467Y62283
X122636Y68509
X119004Y70033
X117490Y70035
X119324Y59385
X113261Y68359
X109489Y69215
X106218Y70422
X118313Y67879
X110498Y61796
X109987Y56873
X111209Y60249
X123952Y70155
X135730Y62301
X144120Y62255
X144132Y64244
X136611Y67661
X135379Y66825
X151219Y62956
X148567Y62979
X146390Y68890
X147442Y62314
X143076Y61430
X137719Y61204
X145133Y58003
X135176Y61224
X133414Y65982
X135489Y75974
X149075Y75974
X152674Y58875
X154051Y71435
X149355Y53584
X134986Y53208
X130947Y60035
X130604Y64795
X153581Y64607
X141465Y69169
X141994Y67414
X143789Y55870
X141265Y55184
X142370Y59908
X139670Y66568
X146383Y66396
X139746Y70152
X148140Y70203
X142243Y70861
X150266Y67945
X147846Y65804
X137597Y62324
X141679Y62804
X147442Y59279
X146360Y58209
X148346Y55126
X146299Y55194
X140294Y57206
X145077Y64259
X137055Y64050
X143096Y57089
X145047Y62169
X136142Y63709
X142250Y57208
X136289Y65463
X142507Y65021
X151173Y64023
X143787Y58024
X146375Y62283
X148544Y68509
X144912Y70033
X143398Y70035
X145232Y59385
X139169Y68359
X135397Y69215
X132126Y70422
X144221Y67879
X136406Y61796
X135895Y56873
X137117Y60249
X149860Y70155
X6190Y88209
X14580Y88163
X14592Y90152
X7071Y93569
X5839Y92733
X21679Y88864
X19027Y88887
X16850Y94798
X17902Y88222
X13536Y87338
X8179Y87112
X15593Y83911
X5636Y87132
X3874Y91890
X5949Y101882
X19535Y101882
X23134Y84783
X24511Y97343
X19815Y79492
X5446Y79116
X1407Y85943
X1064Y90703
X24041Y90515
X11925Y95077
X12454Y93322
X14249Y81778
X11725Y81092
X12830Y85816
X10130Y92476
X16843Y92304
X10206Y96060
X18600Y96111
X12703Y96769
X20726Y93853
X18306Y91712
X8057Y88232
X12139Y88712
X17902Y85187
X16820Y84117
X18806Y81034
X16759Y81102
X10754Y83114
X15537Y90167
X7515Y89958
X13556Y82997
X15507Y88077
X6602Y89617
X12710Y83116
X6749Y91371
X12967Y90929
X21633Y89931
X14247Y83932
X16835Y88191
X19004Y94417
X15372Y95941
X13858Y95943
X15692Y85293
X9629Y94267
X5857Y95123
X2586Y96329
X14681Y93787
X6866Y87704
X6355Y82781
X7577Y86157
X20320Y96063
X32098Y88209
X40488Y88163
X40500Y90152
X32979Y93569
X31747Y92733
X47587Y88864
X44935Y88887
X42758Y94798
X43810Y88222
X39444Y87338
X34087Y87112
X41501Y83911
X31544Y87132
X29782Y91890
X31857Y101882
X45443Y101882
X49042Y84783
X50419Y97343
X45723Y79492
X31354Y79116
X27315Y85943
X26972Y90703
X49949Y90515
X37833Y95077
X38362Y93322
X40157Y81778
X37633Y81092
X38738Y85816
X36038Y92476
X42751Y92304
X36114Y96060
X44508Y96111
X38611Y96769
X46634Y93853
X44214Y91712
X33965Y88232
X38047Y88712
X43810Y85187
X42728Y84117
X44714Y81034
X42667Y81102
X36662Y83114
X41445Y90167
X33423Y89958
X39464Y82997
X41415Y88077
X32510Y89617
X38618Y83116
X32657Y91371
X38875Y90929
X47541Y89931
X40155Y83932
X42743Y88191
X44912Y94417
X41280Y95941
X39766Y95943
X41600Y85293
X35537Y94267
X31765Y95123
X28494Y96329
X40589Y93787
X32774Y87704
X32263Y82781
X33485Y86157
X46228Y96063
X58006Y88209
X66396Y88163
X66408Y90152
X58887Y93569
X57655Y92733
X73495Y88864
X70843Y88887
X68666Y94798
X69718Y88222
X65352Y87338
X59995Y87112
X67409Y83911
X57452Y87132
X55690Y91890
X57765Y101882
X71351Y101882
X74950Y84783
X76327Y97343
X71631Y79492
X57262Y79116
X53223Y85943
X52880Y90703
X75857Y90515
X63741Y95077
X64270Y93322
X66065Y81778
X63541Y81092
X64646Y85816
X61946Y92476
X68659Y92304
X62022Y96060
X6190Y10485
X64519Y96769
X72542Y93853
X70122Y91712
X59873Y88232
X63955Y88712
X69718Y85187
X68636Y84117
X70622Y81034
X68575Y81102
X62570Y83114
X67353Y90167
X59331Y89958
X65372Y82997
X67323Y88077
X58418Y89617
X64526Y83116
X58565Y91371
X64783Y90929
X73449Y89931
X66063Y83932
X68651Y88191
X70820Y94417
X67188Y95941
X65674Y95943
X67508Y85293
X61445Y94267
X57673Y95123
X54402Y96329
X66497Y93787
X58682Y87704
X58171Y82781
X59393Y86157
X72136Y96063
X83914Y88209
X92304Y88163
X92316Y90152
X84795Y93569
X83563Y92733
X99403Y88864
X96751Y88887
X94574Y94798
X95626Y88222
X91260Y87338
X85903Y87112
X93317Y83911
X83360Y87132
X81598Y91890
X83673Y101882
X97259Y101882
X100858Y84783
X102235Y97343
X97539Y79492
X83170Y79116
X79131Y85943
X78788Y90703
X101765Y90515
X89649Y95077
X90178Y93322
X91973Y81778
X89449Y81092
X90554Y85816
X87854Y92476
X94567Y92304
X87930Y96060
X96324Y96111
X90427Y96769
X98450Y93853
X96030Y91712
X85781Y88232
X89863Y88712
X95626Y85187
X94544Y84117
X96530Y81034
X94483Y81102
X88478Y83114
X93261Y90167
X85239Y89958
X91280Y82997
X93231Y88077
X84326Y89617
X90434Y83116
X84473Y91371
X90691Y90929
X99357Y89931
X91971Y83932
X94559Y88191
X96728Y94417
X93096Y95941
X91582Y95943
X93416Y85293
X87353Y94267
X83581Y95123
X80310Y96329
X92405Y93787
X84590Y87704
X84079Y82781
X85301Y86157
X98044Y96063
X109822Y88209
X118212Y88163
X118224Y90152
X110703Y93569
X109471Y92733
X125311Y88864
X122659Y88887
X120482Y94798
X121534Y88222
X117168Y87338
X111811Y87112
X119225Y83911
X109268Y87132
X107506Y91890
X109581Y101882
X123167Y101882
X126766Y84783
X128143Y97343
X123447Y79492
X109078Y79116
X105039Y85943
X104696Y90703
X127673Y90515
X115557Y95077
X116086Y93322
X117881Y81778
X115357Y81092
X116462Y85816
X113762Y92476
X120475Y92304
X113838Y96060
X122232Y96111
X116335Y96769
X124358Y93853
X121938Y91712
X111689Y88232
X115771Y88712
X121534Y85187
X120452Y84117
X122438Y81034
X120391Y81102
X114386Y83114
X119169Y90167
X111147Y89958
X117188Y82997
X119139Y88077
X110234Y89617
X116342Y83116
X110381Y91371
X116599Y90929
X125265Y89931
X117879Y83932
X120467Y88191
X122636Y94417
X119004Y95941
X117490Y95943
X119324Y85293
X113261Y94267
X109489Y95123
X106218Y96329
X118313Y93787
X110498Y87704
X109987Y82781
X111209Y86157
X123952Y96063
X135730Y88209
X144120Y88163
X144132Y90152
X136611Y93569
X135379Y92733
X151219Y88864
X148567Y88887
X146390Y94798
X147442Y88222
X143076Y87338
X137719Y87112
X145133Y83911
X135176Y87132
X133414Y91890
X135489Y101882
X149075Y101882
X152674Y84783
X154051Y97343
X149355Y79492
X134986Y79116
X130947Y85943
X130604Y90703
X153581Y90515
X141465Y95077
X141994Y93322
X143789Y81778
X141265Y81092
X142370Y85816
X139670Y92476
X146383Y92304
X139746Y96060
X148140Y96111
X142243Y96769
X150266Y93853
X147846Y91712
X137597Y88232
X141679Y88712
X147442Y85187
X146360Y84117
X148346Y81034
X146299Y81102
X140294Y83114
X145077Y90167
X137055Y89958
X143096Y82997
X145047Y88077
X136142Y89617
X142250Y83116
X136289Y91371
X142507Y90929
X151173Y89931
X143787Y83932
X146375Y88191
X148544Y94417
X144912Y95941
X143398Y95943
X145232Y85293
X139169Y94267
X70416Y96111
X132126Y96329
X144221Y93787
X136406Y87704
X135895Y82781
X137117Y86157
X149860Y96063
X14580Y10439
X14592Y12428
X7071Y15845
X5839Y15009
X21679Y11140
X19027Y11163
X16850Y17074
X17902Y10498
X13536Y9614
X8179Y9388
X15593Y6187
X5636Y9408
X3874Y14166
X5949Y24158
X19535Y24158
X23134Y7059
X24511Y19619
X19815Y1768
X5446Y1392
X1407Y8219
X1064Y12979
X24041Y12791
X11925Y17353
X12454Y15598
X14249Y4054
X11725Y3368
X12830Y8092
X10130Y14752
X16843Y14580
X10206Y18336
X18600Y18387
X12703Y19045
X20726Y16129
X18306Y13988
X8057Y10508
X12139Y10988
X17902Y7463
X16820Y6393
X18806Y3310
X16759Y3378
X10754Y5390
X15537Y12443
X7515Y12234
X13556Y5273
X15507Y10353
X6602Y11893
X12710Y5392
X6749Y13647
X12967Y13205
X21633Y12207
X14247Y6208
X16835Y10467
X19004Y16693
X15372Y18217
X13858Y18219
X15692Y7569
X9629Y16543
X5857Y17399
X2586Y18606
X14681Y16063
X6866Y9980
X6355Y5057
X7577Y8433
X20320Y18339
X32098Y10485
X40488Y10439
X40500Y12428
X32979Y15845
X31747Y15009
X47587Y11140
X44935Y11163
X42758Y17074
X43810Y10498
X39444Y9614
X34087Y9388
X41501Y6187
X31544Y9408
X29782Y14166
X31857Y24158
X45443Y24158
X49042Y7059
X50419Y19619
X45723Y1768
X31354Y1392
X27315Y8219
X26972Y12979
X49949Y12791
X37833Y17353
X38362Y15598
X40157Y4054
X37633Y3368
X38738Y8092
X36038Y14752
X42751Y14580
X36114Y18336
X44508Y18387
X38611Y19045
X46634Y16129
X44214Y13988
X33965Y10508
X38047Y10988
X43810Y7463
X42728Y6393
X44714Y3310
X42667Y3378
X36662Y5390
X41445Y12443
X33423Y12234
X39464Y5273
X41415Y10353
X32510Y11893
X38618Y5392
X32657Y13647
X38875Y13205
X47541Y12207
X40155Y6208
X42743Y10467
X44912Y16693
X41280Y18217
X39766Y18219
X41600Y7569
X35537Y16543
X31765Y17399
X28494Y18606
X40589Y16063
X32774Y9980
X32263Y5057
X33485Y8433
X46228Y18339
X58006Y10485
X66396Y10439
X66408Y12428
X58887Y15845
X57655Y15009
X73495Y11140
X70843Y11163
X68666Y17074
X69718Y10498
X65352Y9614
X59995Y9388
X67409Y6187
X57452Y9408
X55690Y14166
X57765Y24158
X71351Y24158
X74950Y7059
X76327Y19619
X71631Y1768
X57262Y1392
X53223Y8219
X52880Y12979
X75857Y12791
X63741Y17353
X64270Y15598
X66065Y4054
X63541Y3368
X64646Y8092
X61946Y14752
X68659Y14580
X62022Y18336
X70416Y18387
X64519Y19045
X72542Y16129
X70122Y13988
X59873Y10508
X63955Y10988
X69718Y7463
X68636Y6393
X70622Y3310
X68575Y3378
X62570Y5390
X67353Y12443
X59331Y12234
X65372Y5273
X67323Y10353
X58418Y11893
X64526Y5392
X58565Y13647
X64783Y13205
X73449Y12207
X66063Y6208
X68651Y10467
X70820Y16693
X67188Y18217
X65674Y18219
X67508Y7569
X61445Y16543
X57673Y17399
X54402Y18606
X66497Y16063
X58682Y9980
X58171Y5057
X59393Y8433
X72136Y18339
X83914Y10485
X92304Y10439
X92316Y12428
X84795Y15845
X83563Y15009
X99403Y11140
X96751Y11163
X94574Y17074
X95626Y10498
X91260Y9614
X85903Y9388
X93317Y6187
X83360Y9408
X81598Y14166
X83673Y24158
X97259Y24158
X100858Y7059
X102235Y19619
X97539Y1768
X83170Y1392
X79131Y8219
X135397Y95123
M30